<?xml version="1.0" encoding="utf-8"?>
<!-- Generator: Adobe Illustrator 16.0.0, SVG Export Plug-In . SVG Version: 6.00 Build 0)  -->
<!DOCTYPE svg PUBLIC "-//W3C//DTD SVG 1.1//EN" "http://www.w3.org/Graphics/SVG/1.1/DTD/svg11.dtd">
<svg version="1.1" id="Layer_1" xmlns="http://www.w3.org/2000/svg" xmlns:xlink="http://www.w3.org/1999/xlink" x="0px" y="0px"
	 width="1280px" height="1024px" viewBox="0 0 1280 1024" enable-background="new 0 0 1280 1024" xml:space="preserve">
<g>
	<defs>
		<rect id="SVGID_1_" width="1280" height="1024"/>
	</defs>
	<clipPath id="SVGID_2_">
		<use xlink:href="#SVGID_1_"  overflow="visible"/>
	</clipPath>
	<g clip-path="url(#SVGID_2_)">
		
			<image overflow="visible" width="600" height="600" xlink:href="../../../../../../Users/USER/Desktop/alex/pattern.jpg"  transform="matrix(0.25 0 0 0.25 0 0)">
		</image>
		
			<image overflow="visible" width="600" height="600" xlink:href="../../../../../../Users/USER/Desktop/alex/pattern.jpg"  transform="matrix(0.25 0 0 0.25 150.0005 0)">
		</image>
		
			<image overflow="visible" width="600" height="600" xlink:href="../../../../../../Users/USER/Desktop/alex/pattern.jpg"  transform="matrix(0.25 0 0 0.25 300.0005 0)">
		</image>
		
			<image overflow="visible" width="600" height="600" xlink:href="../../../../../../Users/USER/Desktop/alex/pattern.jpg"  transform="matrix(0.25 0 0 0.25 0 150)">
		</image>
		
			<image overflow="visible" width="600" height="600" xlink:href="../../../../../../Users/USER/Desktop/alex/pattern.jpg"  transform="matrix(0.25 0 0 0.25 150.0005 150)">
		</image>
		
			<image overflow="visible" width="600" height="600" xlink:href="../../../../../../Users/USER/Desktop/alex/pattern.jpg"  transform="matrix(0.25 0 0 0.25 300.0005 150)">
		</image>
		
			<image overflow="visible" width="600" height="600" xlink:href="../../../../../../Users/USER/Desktop/alex/pattern.jpg"  transform="matrix(0.25 0 0 0.25 0 300)">
		</image>
		
			<image overflow="visible" width="600" height="600" xlink:href="../../../../../../Users/USER/Desktop/alex/pattern.jpg"  transform="matrix(0.25 0 0 0.25 150.0005 300)">
		</image>
		
			<image overflow="visible" width="600" height="600" xlink:href="../../../../../../Users/USER/Desktop/alex/pattern.jpg"  transform="matrix(0.25 0 0 0.25 300.0005 300)">
		</image>
		
			<image overflow="visible" width="600" height="600" xlink:href="../../../../../../Users/USER/Desktop/alex/pattern.jpg"  transform="matrix(0.25 0 0 0.25 450.0005 0)">
		</image>
		
			<image overflow="visible" width="600" height="600" xlink:href="../../../../../../Users/USER/Desktop/alex/pattern.jpg"  transform="matrix(0.25 0 0 0.25 600.0005 0)">
		</image>
		
			<image overflow="visible" width="600" height="600" xlink:href="../../../../../../Users/USER/Desktop/alex/pattern.jpg"  transform="matrix(0.25 0 0 0.25 750 0)">
		</image>
		
			<image overflow="visible" width="600" height="600" xlink:href="../../../../../../Users/USER/Desktop/alex/pattern.jpg"  transform="matrix(0.25 0 0 0.25 450.0005 150)">
		</image>
		
			<image overflow="visible" width="600" height="600" xlink:href="../../../../../../Users/USER/Desktop/alex/pattern.jpg"  transform="matrix(0.25 0 0 0.25 600.0005 150)">
		</image>
		
			<image overflow="visible" width="600" height="600" xlink:href="../../../../../../Users/USER/Desktop/alex/pattern.jpg"  transform="matrix(0.25 0 0 0.25 750 150)">
		</image>
		
			<image overflow="visible" width="600" height="600" xlink:href="../../../../../../Users/USER/Desktop/alex/pattern.jpg"  transform="matrix(0.25 0 0 0.25 450.0005 300)">
		</image>
		
			<image overflow="visible" width="600" height="600" xlink:href="../../../../../../Users/USER/Desktop/alex/pattern.jpg"  transform="matrix(0.25 0 0 0.25 600.0005 300)">
		</image>
		
			<image overflow="visible" width="600" height="600" xlink:href="../../../../../../Users/USER/Desktop/alex/pattern.jpg"  transform="matrix(0.25 0 0 0.25 750 300)">
		</image>
		
			<image overflow="visible" width="600" height="600" xlink:href="../../../../../../Users/USER/Desktop/alex/pattern.jpg"  transform="matrix(0.25 0 0 0.25 900 0)">
		</image>
		
			<image overflow="visible" width="600" height="600" xlink:href="../../../../../../Users/USER/Desktop/alex/pattern.jpg"  transform="matrix(0.25 0 0 0.25 1050.001 0)">
		</image>
		
			<image overflow="visible" width="600" height="600" xlink:href="../../../../../../Users/USER/Desktop/alex/pattern.jpg"  transform="matrix(0.25 0 0 0.25 1200.001 0)">
		</image>
		
			<image overflow="visible" width="600" height="600" xlink:href="../../../../../../Users/USER/Desktop/alex/pattern.jpg"  transform="matrix(0.25 0 0 0.25 900 150)">
		</image>
		
			<image overflow="visible" width="600" height="600" xlink:href="../../../../../../Users/USER/Desktop/alex/pattern.jpg"  transform="matrix(0.25 0 0 0.25 1050.001 150)">
		</image>
		
			<image overflow="visible" width="600" height="600" xlink:href="../../../../../../Users/USER/Desktop/alex/pattern.jpg"  transform="matrix(0.25 0 0 0.25 1200.001 150)">
		</image>
		
			<image overflow="visible" width="600" height="600" xlink:href="../../../../../../Users/USER/Desktop/alex/pattern.jpg"  transform="matrix(0.25 0 0 0.25 900 300)">
		</image>
		
			<image overflow="visible" width="600" height="600" xlink:href="../../../../../../Users/USER/Desktop/alex/pattern.jpg"  transform="matrix(0.25 0 0 0.25 1050.001 300)">
		</image>
		
			<image overflow="visible" width="600" height="600" xlink:href="../../../../../../Users/USER/Desktop/alex/pattern.jpg"  transform="matrix(0.25 0 0 0.25 1200.001 300)">
		</image>
		
			<image overflow="visible" width="600" height="600" xlink:href="../../../../../../Users/USER/Desktop/alex/pattern.jpg"  transform="matrix(0.25 0 0 0.25 0 450.0005)">
		</image>
		
			<image overflow="visible" width="600" height="600" xlink:href="../../../../../../Users/USER/Desktop/alex/pattern.jpg"  transform="matrix(0.25 0 0 0.25 150.0005 450.0005)">
		</image>
		
			<image overflow="visible" width="600" height="600" xlink:href="../../../../../../Users/USER/Desktop/alex/pattern.jpg"  transform="matrix(0.25 0 0 0.25 300.0005 450.0005)">
		</image>
		
			<image overflow="visible" width="600" height="600" xlink:href="../../../../../../Users/USER/Desktop/alex/pattern.jpg"  transform="matrix(0.25 0 0 0.25 0 600.001)">
		</image>
		
			<image overflow="visible" width="600" height="600" xlink:href="../../../../../../Users/USER/Desktop/alex/pattern.jpg"  transform="matrix(0.25 0 0 0.25 150.0005 600.001)">
		</image>
		
			<image overflow="visible" width="600" height="600" xlink:href="../../../../../../Users/USER/Desktop/alex/pattern.jpg"  transform="matrix(0.25 0 0 0.25 300.0005 600.001)">
		</image>
		
			<image overflow="visible" width="600" height="600" xlink:href="../../../../../../Users/USER/Desktop/alex/pattern.jpg"  transform="matrix(0.25 0 0 0.25 0 750.001)">
		</image>
		
			<image overflow="visible" width="600" height="600" xlink:href="../../../../../../Users/USER/Desktop/alex/pattern.jpg"  transform="matrix(0.25 0 0 0.25 150.0005 750.001)">
		</image>
		
			<image overflow="visible" width="600" height="600" xlink:href="../../../../../../Users/USER/Desktop/alex/pattern.jpg"  transform="matrix(0.25 0 0 0.25 300.0005 750.001)">
		</image>
		
			<image overflow="visible" width="600" height="600" xlink:href="../../../../../../Users/USER/Desktop/alex/pattern.jpg"  transform="matrix(0.25 0 0 0.25 450.0005 450.0005)">
		</image>
		
			<image overflow="visible" width="600" height="600" xlink:href="../../../../../../Users/USER/Desktop/alex/pattern.jpg"  transform="matrix(0.25 0 0 0.25 600.0005 450.0005)">
		</image>
		
			<image overflow="visible" width="600" height="600" xlink:href="../../../../../../Users/USER/Desktop/alex/pattern.jpg"  transform="matrix(0.25 0 0 0.25 750 450.0005)">
		</image>
		
			<image overflow="visible" width="600" height="600" xlink:href="../../../../../../Users/USER/Desktop/alex/pattern.jpg"  transform="matrix(0.25 0 0 0.25 450.0005 600.001)">
		</image>
		
			<image overflow="visible" width="600" height="600" xlink:href="../../../../../../Users/USER/Desktop/alex/pattern.jpg"  transform="matrix(0.25 0 0 0.25 600.0005 600.001)">
		</image>
		
			<image overflow="visible" width="600" height="600" xlink:href="../../../../../../Users/USER/Desktop/alex/pattern.jpg"  transform="matrix(0.25 0 0 0.25 750 600.001)">
		</image>
		
			<image overflow="visible" width="600" height="600" xlink:href="../../../../../../Users/USER/Desktop/alex/pattern.jpg"  transform="matrix(0.25 0 0 0.25 450.0005 750.001)">
		</image>
		
			<image overflow="visible" width="600" height="600" xlink:href="../../../../../../Users/USER/Desktop/alex/pattern.jpg"  transform="matrix(0.25 0 0 0.25 600.0005 750.001)">
		</image>
		
			<image overflow="visible" width="600" height="600" xlink:href="../../../../../../Users/USER/Desktop/alex/pattern.jpg"  transform="matrix(0.25 0 0 0.25 750 750.001)">
		</image>
		
			<image overflow="visible" width="600" height="600" xlink:href="../../../../../../Users/USER/Desktop/alex/pattern.jpg"  transform="matrix(0.25 0 0 0.25 900 450.0005)">
		</image>
		
			<image overflow="visible" width="600" height="600" xlink:href="../../../../../../Users/USER/Desktop/alex/pattern.jpg"  transform="matrix(0.25 0 0 0.25 1050.001 450.0005)">
		</image>
		
			<image overflow="visible" width="600" height="600" xlink:href="../../../../../../Users/USER/Desktop/alex/pattern.jpg"  transform="matrix(0.25 0 0 0.25 1200.001 450.0005)">
		</image>
		
			<image overflow="visible" width="600" height="600" xlink:href="../../../../../../Users/USER/Desktop/alex/pattern.jpg"  transform="matrix(0.25 0 0 0.25 900 600.001)">
		</image>
		
			<image overflow="visible" width="600" height="600" xlink:href="../../../../../../Users/USER/Desktop/alex/pattern.jpg"  transform="matrix(0.25 0 0 0.25 1050.001 600.001)">
		</image>
		
			<image overflow="visible" width="600" height="600" xlink:href="../../../../../../Users/USER/Desktop/alex/pattern.jpg"  transform="matrix(0.25 0 0 0.25 1200.001 600.001)">
		</image>
		
			<image overflow="visible" width="600" height="600" xlink:href="../../../../../../Users/USER/Desktop/alex/pattern.jpg"  transform="matrix(0.25 0 0 0.25 900 750.001)">
		</image>
		
			<image overflow="visible" width="600" height="600" xlink:href="../../../../../../Users/USER/Desktop/alex/pattern.jpg"  transform="matrix(0.25 0 0 0.25 1050.001 750.001)">
		</image>
		
			<image overflow="visible" width="600" height="600" xlink:href="../../../../../../Users/USER/Desktop/alex/pattern.jpg"  transform="matrix(0.25 0 0 0.25 1200.001 750.001)">
		</image>
		
			<image overflow="visible" width="600" height="600" xlink:href="../../../../../../Users/USER/Desktop/alex/pattern.jpg"  transform="matrix(0.25 0 0 0.25 1350.001 0)">
		</image>
		
			<image overflow="visible" width="600" height="600" xlink:href="../../../../../../Users/USER/Desktop/alex/pattern.jpg"  transform="matrix(0.25 0 0 0.25 1500.001 0)">
		</image>
		
			<image overflow="visible" width="600" height="600" xlink:href="../../../../../../Users/USER/Desktop/alex/pattern.jpg"  transform="matrix(0.25 0 0 0.25 1650.001 0)">
		</image>
		
			<image overflow="visible" width="600" height="600" xlink:href="../../../../../../Users/USER/Desktop/alex/pattern.jpg"  transform="matrix(0.25 0 0 0.25 1350.001 150)">
		</image>
		
			<image overflow="visible" width="600" height="600" xlink:href="../../../../../../Users/USER/Desktop/alex/pattern.jpg"  transform="matrix(0.25 0 0 0.25 1500.001 150)">
		</image>
		
			<image overflow="visible" width="600" height="600" xlink:href="../../../../../../Users/USER/Desktop/alex/pattern.jpg"  transform="matrix(0.25 0 0 0.25 1650.001 150)">
		</image>
		
			<image overflow="visible" width="600" height="600" xlink:href="../../../../../../Users/USER/Desktop/alex/pattern.jpg"  transform="matrix(0.25 0 0 0.25 1350.001 300)">
		</image>
		
			<image overflow="visible" width="600" height="600" xlink:href="../../../../../../Users/USER/Desktop/alex/pattern.jpg"  transform="matrix(0.25 0 0 0.25 1500.001 300)">
		</image>
		
			<image overflow="visible" width="600" height="600" xlink:href="../../../../../../Users/USER/Desktop/alex/pattern.jpg"  transform="matrix(0.25 0 0 0.25 1650.001 300)">
		</image>
		
			<image overflow="visible" width="600" height="600" xlink:href="../../../../../../Users/USER/Desktop/alex/pattern.jpg"  transform="matrix(0.25 0 0 0.25 1350.001 450.0005)">
		</image>
		
			<image overflow="visible" width="600" height="600" xlink:href="../../../../../../Users/USER/Desktop/alex/pattern.jpg"  transform="matrix(0.25 0 0 0.25 1500.001 450.0005)">
		</image>
		
			<image overflow="visible" width="600" height="600" xlink:href="../../../../../../Users/USER/Desktop/alex/pattern.jpg"  transform="matrix(0.25 0 0 0.25 1650.001 450.0005)">
		</image>
		
			<image overflow="visible" width="600" height="600" xlink:href="../../../../../../Users/USER/Desktop/alex/pattern.jpg"  transform="matrix(0.25 0 0 0.25 1350.001 600.001)">
		</image>
		
			<image overflow="visible" width="600" height="600" xlink:href="../../../../../../Users/USER/Desktop/alex/pattern.jpg"  transform="matrix(0.25 0 0 0.25 1500.001 600.001)">
		</image>
		
			<image overflow="visible" width="600" height="600" xlink:href="../../../../../../Users/USER/Desktop/alex/pattern.jpg"  transform="matrix(0.25 0 0 0.25 1650.001 600.001)">
		</image>
		
			<image overflow="visible" width="600" height="600" xlink:href="../../../../../../Users/USER/Desktop/alex/pattern.jpg"  transform="matrix(0.25 0 0 0.25 1350.001 750.001)">
		</image>
		
			<image overflow="visible" width="600" height="600" xlink:href="../../../../../../Users/USER/Desktop/alex/pattern.jpg"  transform="matrix(0.25 0 0 0.25 1500.001 750.001)">
		</image>
		
			<image overflow="visible" width="600" height="600" xlink:href="../../../../../../Users/USER/Desktop/alex/pattern.jpg"  transform="matrix(0.25 0 0 0.25 1650.001 750.001)">
		</image>
		
			<image overflow="visible" width="600" height="600" xlink:href="../../../../../../Users/USER/Desktop/alex/pattern.jpg"  transform="matrix(0.25 0 0 0.25 0 900)">
		</image>
		
			<image overflow="visible" width="600" height="600" xlink:href="../../../../../../Users/USER/Desktop/alex/pattern.jpg"  transform="matrix(0.25 0 0 0.25 150.0005 900)">
		</image>
		
			<image overflow="visible" width="600" height="600" xlink:href="../../../../../../Users/USER/Desktop/alex/pattern.jpg"  transform="matrix(0.25 0 0 0.25 300.0005 900)">
		</image>
		
			<image overflow="visible" width="600" height="600" xlink:href="../../../../../../Users/USER/Desktop/alex/pattern.jpg"  transform="matrix(0.25 0 0 0.25 0 1050)">
		</image>
		
			<image overflow="visible" width="600" height="600" xlink:href="../../../../../../Users/USER/Desktop/alex/pattern.jpg"  transform="matrix(0.25 0 0 0.25 150.0005 1050)">
		</image>
		
			<image overflow="visible" width="600" height="600" xlink:href="../../../../../../Users/USER/Desktop/alex/pattern.jpg"  transform="matrix(0.25 0 0 0.25 300.0005 1050)">
		</image>
		
			<image overflow="visible" width="600" height="600" xlink:href="../../../../../../Users/USER/Desktop/alex/pattern.jpg"  transform="matrix(0.25 0 0 0.25 0 1200.001)">
		</image>
		
			<image overflow="visible" width="600" height="600" xlink:href="../../../../../../Users/USER/Desktop/alex/pattern.jpg"  transform="matrix(0.25 0 0 0.25 150.0005 1200.001)">
		</image>
		
			<image overflow="visible" width="600" height="600" xlink:href="../../../../../../Users/USER/Desktop/alex/pattern.jpg"  transform="matrix(0.25 0 0 0.25 300.0005 1200.001)">
		</image>
		
			<image overflow="visible" width="600" height="600" xlink:href="../../../../../../Users/USER/Desktop/alex/pattern.jpg"  transform="matrix(0.25 0 0 0.25 450.0005 900)">
		</image>
		
			<image overflow="visible" width="600" height="600" xlink:href="../../../../../../Users/USER/Desktop/alex/pattern.jpg"  transform="matrix(0.25 0 0 0.25 600.0005 900)">
		</image>
		
			<image overflow="visible" width="600" height="600" xlink:href="../../../../../../Users/USER/Desktop/alex/pattern.jpg"  transform="matrix(0.25 0 0 0.25 750 900)">
		</image>
		
			<image overflow="visible" width="600" height="600" xlink:href="../../../../../../Users/USER/Desktop/alex/pattern.jpg"  transform="matrix(0.25 0 0 0.25 450.0005 1050)">
		</image>
		
			<image overflow="visible" width="600" height="600" xlink:href="../../../../../../Users/USER/Desktop/alex/pattern.jpg"  transform="matrix(0.25 0 0 0.25 600.0005 1050)">
		</image>
		
			<image overflow="visible" width="600" height="600" xlink:href="../../../../../../Users/USER/Desktop/alex/pattern.jpg"  transform="matrix(0.25 0 0 0.25 750 1050)">
		</image>
		
			<image overflow="visible" width="600" height="600" xlink:href="../../../../../../Users/USER/Desktop/alex/pattern.jpg"  transform="matrix(0.25 0 0 0.25 450.0005 1200.001)">
		</image>
		
			<image overflow="visible" width="600" height="600" xlink:href="../../../../../../Users/USER/Desktop/alex/pattern.jpg"  transform="matrix(0.25 0 0 0.25 600.0005 1200.001)">
		</image>
		
			<image overflow="visible" width="600" height="600" xlink:href="../../../../../../Users/USER/Desktop/alex/pattern.jpg"  transform="matrix(0.25 0 0 0.25 750 1200.001)">
		</image>
		
			<image overflow="visible" width="600" height="600" xlink:href="../../../../../../Users/USER/Desktop/alex/pattern.jpg"  transform="matrix(0.25 0 0 0.25 900 900)">
		</image>
		
			<image overflow="visible" width="600" height="600" xlink:href="../../../../../../Users/USER/Desktop/alex/pattern.jpg"  transform="matrix(0.25 0 0 0.25 1050.001 900)">
		</image>
		
			<image overflow="visible" width="600" height="600" xlink:href="../../../../../../Users/USER/Desktop/alex/pattern.jpg"  transform="matrix(0.25 0 0 0.25 1200.001 900)">
		</image>
		
			<image overflow="visible" width="600" height="600" xlink:href="../../../../../../Users/USER/Desktop/alex/pattern.jpg"  transform="matrix(0.25 0 0 0.25 900 1050)">
		</image>
		
			<image overflow="visible" width="600" height="600" xlink:href="../../../../../../Users/USER/Desktop/alex/pattern.jpg"  transform="matrix(0.25 0 0 0.25 1050.001 1050)">
		</image>
		
			<image overflow="visible" width="600" height="600" xlink:href="../../../../../../Users/USER/Desktop/alex/pattern.jpg"  transform="matrix(0.25 0 0 0.25 1200.001 1050)">
		</image>
		
			<image overflow="visible" width="600" height="600" xlink:href="../../../../../../Users/USER/Desktop/alex/pattern.jpg"  transform="matrix(0.25 0 0 0.25 900 1200.001)">
		</image>
		
			<image overflow="visible" width="600" height="600" xlink:href="../../../../../../Users/USER/Desktop/alex/pattern.jpg"  transform="matrix(0.25 0 0 0.25 1050.001 1200.001)">
		</image>
		
			<image overflow="visible" width="600" height="600" xlink:href="../../../../../../Users/USER/Desktop/alex/pattern.jpg"  transform="matrix(0.25 0 0 0.25 1200.001 1200.001)">
		</image>
		
			<image overflow="visible" width="600" height="600" xlink:href="../../../../../../Users/USER/Desktop/alex/pattern.jpg"  transform="matrix(0.25 0 0 0.25 1350 900)">
		</image>
		
			<image overflow="visible" width="600" height="600" xlink:href="../../../../../../Users/USER/Desktop/alex/pattern.jpg"  transform="matrix(0.25 0 0 0.25 1500 900)">
		</image>
		
			<image overflow="visible" width="600" height="600" xlink:href="../../../../../../Users/USER/Desktop/alex/pattern.jpg"  transform="matrix(0.25 0 0 0.25 1650.001 900)">
		</image>
		
			<image overflow="visible" width="600" height="600" xlink:href="../../../../../../Users/USER/Desktop/alex/pattern.jpg"  transform="matrix(0.25 0 0 0.25 1350 1050)">
		</image>
		
			<image overflow="visible" width="600" height="600" xlink:href="../../../../../../Users/USER/Desktop/alex/pattern.jpg"  transform="matrix(0.25 0 0 0.25 1500 1050)">
		</image>
		
			<image overflow="visible" width="600" height="600" xlink:href="../../../../../../Users/USER/Desktop/alex/pattern.jpg"  transform="matrix(0.25 0 0 0.25 1650.001 1050)">
		</image>
		
			<image overflow="visible" width="600" height="600" xlink:href="../../../../../../Users/USER/Desktop/alex/pattern.jpg"  transform="matrix(0.25 0 0 0.25 1350 1200.001)">
		</image>
		
			<image overflow="visible" width="600" height="600" xlink:href="../../../../../../Users/USER/Desktop/alex/pattern.jpg"  transform="matrix(0.25 0 0 0.25 1500 1200.001)">
		</image>
		
			<image overflow="visible" width="600" height="600" xlink:href="../../../../../../Users/USER/Desktop/alex/pattern.jpg"  transform="matrix(0.25 0 0 0.25 1650.001 1200.001)">
		</image>
	</g>
</g>
<polygon opacity="0.6" fill="#8EC641" stroke="#FFFFFF" stroke-width="4" stroke-miterlimit="10" enable-background="new    " points="
	129.235,480.448 694.916,880.777 1221.435,480.448 725.377,97.527 "/>
<polygon fill="#FFFFFF" stroke="#8DC541" stroke-width="4" stroke-miterlimit="10" points="190.108,489.152 386.598,627.585 
	611.587,501.591 430.096,351.599 "/>
<polygon fill="#FFFFFF" stroke="#8DC541" stroke-width="4" stroke-miterlimit="10" points="470.594,311.101 474.336,314.006 
	675.335,470.093 928.071,296.102 731.581,144.609 "/>
<path fill="#FFFFFF" stroke="#8DC541" stroke-width="4" stroke-miterlimit="10" d="M440.595,675.582c0-4.499,0,4.499,0,4.499
	L640,546.589l217.574,161.992L699.332,849.573L440.595,675.582z"/>
<polygon fill="#FFFFFF" stroke="#8DC541" stroke-width="4" stroke-miterlimit="10" points="724.081,512 905.572,671.083 
	1172.559,489.152 976.068,339.599 "/>
</svg>
